HIERARCHY
ROOT Hips
{
  OFFSET 56.2251 92.5799 40.8153
  CHANNELS 6 Xposition Yposition Zposition Zrotation Xrotation Yrotation
  JOINT RightUpLeg
  {
    OFFSET -8.9458 -8.66707 0.101652
    CHANNELS 3 Zrotation Xrotation Yrotation
    JOINT RightLeg
    {
      OFFSET 0 -44.4227 1.3727
      CHANNELS 3 Zrotation Xrotation Yrotation
      JOINT RightFoot
      {
        OFFSET 0.253549 -42.0924 -1.46059
        CHANNELS 3 Zrotation Xrotation Yrotation
        JOINT RightToes
        {
          OFFSET 0.04 -4.41509 8.4991
          CHANNELS 3 Zrotation Xrotation Yrotation
          End Site
          {
            OFFSET -0.08 -0.137448 9.77979
          }
        }
      }
    }
  }
  JOINT Spine
  {
    OFFSET 0 11.8905 0
    CHANNELS 3 Zrotation Xrotation Yrotation
    JOINT Spine1
    {
      OFFSET 0 25.6574 0.127663
      CHANNELS 3 Zrotation Xrotation Yrotation
      JOINT HEad
      {
        OFFSET 0 8.73416 0.011341
        CHANNELS 3 Zrotation Xrotation Yrotation
        End Site
        {
          OFFSET -0.29 12.7742 2.51395
        }
      }
      JOINT LeftShoulder1
      {
        OFFSET 8.99 -0.362252 -0.22
        CHANNELS 3 Zrotation Xrotation Yrotation
        JOINT LeftArm
        {
          OFFSET 10.2827 -0.00338 0.322123
          CHANNELS 3 Zrotation Xrotation Yrotation
          JOINT LeftForeArm
          {
            OFFSET 32.7669 0.099144 -1.42434
            CHANNELS 3 Zrotation Xrotation Yrotation
            JOINT LeftHand
            {
              OFFSET 27.5643 0.085362 1.02216
              CHANNELS 3 Zrotation Xrotation Yrotation
              End Site
              {
                OFFSET 16.7443 -0.6 1.50291
              }
            }
          }
        }
      }
      JOINT RightShoulder
      {
        OFFSET -8.99 -0.362252 -0.22
        CHANNELS 3 Zrotation Xrotation Yrotation
        JOINT RightArm
        {
          OFFSET -10.2827 -0.00338 0.322123
          CHANNELS 3 Zrotation Xrotation Yrotation
          JOINT RightForeArm
          {
            OFFSET -32.8971 0.099144 -1.42434
            CHANNELS 3 Zrotation Xrotation Yrotation
            JOINT RightHand
            {
              OFFSET -27.4921 0.085362 1.02216
              CHANNELS 3 Zrotation Xrotation Yrotation
              End Site
              {
                OFFSET -16.6312 -0.6 1.50291
              }
            }
          }
        }
      }
    }
  }
  JOINT LeftUpLeg
  {
    OFFSET 8.9458 -8.66707 0.101652
    CHANNELS 3 Zrotation Xrotation Yrotation
    JOINT LeftLeg
    {
      OFFSET 0 -44.4227 1.3727
      CHANNELS 3 Zrotation Xrotation Yrotation
      JOINT LeftFoot
      {
        OFFSET -0.253549 -42.0924 -1.46059
        CHANNELS 3 Zrotation Xrotation Yrotation
        JOINT LeftToes
        {
          OFFSET -0.04 -4.41509 8.4991
          CHANNELS 3 Zrotation Xrotation Yrotation
          End Site
          {
            OFFSET 0.08 -0.047448 9.77979
          }
        }
      }
    }
  }
}
MOTION
Frames:	7
Frame Time:	0.0166667
27.0257 92.0182 -31.9986 -5.16921 16.3984 -134.376 -10.346 -7.75777 -3.64051 16.3922 61.601 -24.2507 11.0598 23.1352 -2.94098 -43.896 -45.8054 18.3334 -0.697624 12.958 -1.64434 -3.29707 26.094 -2.59838 2.65252 -18.731 29.2247 -3.18055e-015 -1.59028e-015 -0 -48.5922 -42.6166 -40.5536 -22.1993 25.9887 -67.9752 0.215976 9.97475 -13.5147 32.3585 6.63542 17.2764 21.0702 -16.7642 32.1729 2.51445 29.2982 151.301 -2.6631 10.5135 -40.0451 28.9005 -10.7143 -3.54773 -7.07148 30.4746 8.2373 -6.27243 11.9967 0.984408 -7.97019 -25.3358 -6.64675 
27.5883 91.9961 -30.1716 -5.71645 16.3546 -134.91 -10.2935 -3.56022 -3.80128 16.9353 62.0693 -22.2522 12.7447 24.4312 -3.53398 -45.9035 -47.4345 17.3788 -0.721675 13.0583 -0.646947 -3.68509 26.2789 -0.478173 2.60959 -17.0201 26.1877 -8.82781e-032 1.59028e-015 3.18055e-015 -50.9401 -33.3174 -33.2357 -19.8578 25.7144 -78.7968 -0.744754 10.1271 -13.8186 32.4447 6.43196 16.6434 21.0985 -16.9023 30.6863 2.9827 29.8231 150.615 -2.2193 10.3694 -39.8054 28.0363 -11.0019 -2.9706 -7.22073 30.3507 8.43291 -6.51077 12.4096 1.04604 -7.512 -24.0726 -6.54898 
28.3046 91.9091 -28.378 -6.25747 16.3316 -135.244 -10.0645 1.02861 -2.9638 19.0685 61.1084 -20.7078 14.9554 25.2452 -4.2618 -47.0493 -48.5567 17.364 -0.857936 13.1431 0.161141 -4.03545 26.4207 1.19374 3.33277 -15.4859 23.8363 -2.38542e-015 -7.95139e-016 -0 -53.6366 -23.0798 -26.5567 -16.2157 23.138 -88.4259 -0.878396 10.1503 -13.9749 32.7659 6.20848 15.8377 21.317 -16.3698 29.4925 2.93047 29.4734 150.452 -1.48053 10.1402 -40.2879 27.2384 -11.2957 -2.41254 -7.11241 29.9952 8.15402 -7.2478 12.5863 1.18496 -6.85598 -22.298 -6.25958 
29.2224 91.7496 -26.568 -6.75977 16.2906 -135.52 -9.53323 5.60352 -1.35386 21.6738 59.0685 -18.9953 17.0543 24.8662 -4.81825 -46.3837 -48.4561 18.6649 -1.00621 13.2101 0.818432 -4.38288 26.5277 2.54695 4.68439 -14.353 22.0466 -5.56597e-015 -4.77083e-015 3.18055e-015 -57.0211 -15.0387 -21.3666 -13.1439 20.825 -95.3172 -0.283656 10.0597 -14.3907 33.1341 5.99693 15.0567 21.7546 -15.5677 28.7109 2.52468 28.5807 150.703 -0.792642 9.92086 -41.1522 26.5818 -11.646 -1.82011 -6.97268 29.4146 7.67709 -8.29261 12.7653 1.38122 -6.07668 -20.1649 -5.81672 
30.3707 91.499 -24.6942 -7.249 16.2113 -135.777 -8.60053 9.87474 0.618961 23.4672 56.4128 -16.505 18.2679 22.7653 -4.8423 -43.8571 -46.7953 20.8832 -1.04673 13.2681 1.36101 -4.68797 26.6389 3.69605 6.26018 -13.6631 20.5222 -2.38542e-015 4.77083e-015 3.18055e-015 -60.0993 -10.1249 -17.8821 -11.2889 19.6329 -99.4843 0.729529 9.8954 -14.9708 33.333 5.80602 14.4239 22.37 -14.9752 28.4188 2.07525 27.6041 151.132 -0.417264 9.79505 -42.0432 25.9983 -12.1115 -1.01223 -6.72182 28.6567 7.02216 -9.38703 13.3302 1.61902 -5.35798 -18.1272 -5.41222 
31.7678 91.1322 -22.713 -7.77083 16.0565 -136.016 -7.28996 13.6425 2.53824 23.7152 53.5411 -13.4012 18.0298 19.051 -4.21179 -40.789 -44.2385 22.8166 -0.941477 13.329 1.82317 -4.88048 26.7864 4.69581 7.54755 -13.2572 19.0263 6.36111e-015 -3.18055e-015 -9.54166e-015 -62.0916 -8.26943 -16.3122 -10.7174 19.7936 -101.448 2.01989 9.67336 -15.4982 33.1951 5.63379 13.997 23.2241 -15.0879 28.7036 1.82176 27.0496 151.506 -0.345466 9.76775 -42.8889 25.2833 -12.7489 0.0451641 -6.11164 27.7374 6.18238 -10.3734 14.6106 1.90776 -4.85219 -16.636 -5.19271 
33.4131 90.645 -20.5783 -8.29923 15.766 -136.308 -5.78598 16.6941 4.14999 22.3778 50.6445 -10.4834 16.2478 14.4246 -3.16264 -39.2223 -42.5725 23.0804 -0.739546 13.3951 2.23173 -4.88321 26.9622 5.5357 8.10436 -12.9365 17.56 3.18055e-015 -2.38542e-015 6.36111e-015 -62.9048 -9.03712 -16.6419 -11.1197 21.0776 -101.823 3.55444 9.40176 -15.7879 32.5934 5.48733 13.8425 24.4816 -16.2626 29.7774 1.8456 27.3565 151.676 -0.339254 9.76121 -44.0501 24.2437 -13.6013 1.07222 -4.97486 26.5525 5.36831 -11.3122 16.7617 2.28979 -4.57713 -15.8033 -5.116 
